<?xml version="1.0" standalone="no"?>
<!DOCTYPE svg PUBLIC "-//W3C//DTD SVG 20010904//EN"
 "http://www.w3.org/TR/2001/REC-SVG-20010904/DTD/svg10.dtd">
<svg version="1.0" xmlns="http://www.w3.org/2000/svg"
 width="225.000000pt" height="225.000000pt" viewBox="0 0 225.000000 225.000000"
 preserveAspectRatio="xMidYMid meet">

<g transform="translate(0.000000,225.000000) scale(0.100000,-0.100000)"
fill="#000000" stroke="none">
<path d="M154 2218 c12 -30 13 -66 1 -124 -3 -13 -15 -24 -30 -28 -22 -6 -25
-11 -25 -55 0 -41 -4 -51 -26 -66 -16 -10 -35 -14 -50 -11 l-24 6 0 -585 0
-585 69 0 c72 0 106 -16 95 -44 -7 -19 -37 -26 -106 -26 l-58 0 0 -350 0 -350
1125 0 1126 0 -3 73 -3 72 -54 7 c-49 6 -76 22 -65 39 2 4 31 10 64 14 l60 7
0 350 c0 331 -1 351 -19 375 -21 26 -18 53 5 53 12 0 14 91 14 580 0 490 -2
580 -14 580 -8 0 -37 23 -65 50 l-51 50 -990 0 -989 0 13 -32z m936 -87 c0 -6
-4 -13 -10 -16 -5 -3 -10 1 -10 9 0 9 5 16 10 16 6 0 10 -4 10 -9z m41 -14 c9
-7 22 -23 29 -37 21 -38 10 -132 -11 -99 -7 11 -9 11 -9 1 0 -7 -4 -10 -10 -7
-5 3 -10 13 -10 21 0 8 5 12 10 9 6 -3 10 -1 10 5 0 6 5 8 10 5 6 -3 10 4 10
15 0 14 -5 20 -13 17 -8 -3 -12 6 -12 27 0 20 -5 31 -14 31 -8 0 -16 6 -18 13
-6 15 7 15 28 -1z m166 -62 c39 -44 40 -47 47 -138 10 -144 -17 -346 -57 -434
-20 -45 -79 -105 -89 -91 -5 9 -8 8 -8 -6 0 -12 -5 -16 -16 -12 -8 3 -13 2
-10 -3 3 -5 -1 -11 -9 -15 -8 -3 -15 -1 -15 5 0 5 -12 2 -26 -7 -25 -17 -26
-17 -22 2 2 10 10 25 18 32 13 11 12 12 -7 7 -32 -9 -29 13 2 25 14 5 25 12
25 15 0 4 -5 3 -11 0 -16 -11 -61 4 -53 17 5 7 2 9 -9 5 -14 -5 -15 -2 -7 19
12 32 12 34 0 34 -6 0 -15 -10 -19 -22 -8 -19 -9 -17 -8 13 1 21 5 35 10 32 4
-2 7 5 7 17 0 12 4 19 9 16 11 -7 23 34 27 94 l3 45 -16 -32 c-8 -18 -19 -33
-24 -33 -12 0 -12 27 0 34 10 7 2 59 -12 67 -12 8 1 31 14 24 5 -4 9 -20 9
-36 0 -17 4 -28 9 -24 6 3 8 36 6 74 -3 54 -1 70 10 75 9 3 15 20 16 43 0 21
3 32 6 26 3 -10 10 -9 28 3 l23 15 -4 -48 c-4 -43 -3 -46 8 -23 l12 25 4 -32
c4 -41 -16 -82 -30 -62 -7 10 -7 8 -3 -8 4 -14 2 -23 -4 -23 -6 0 -11 -4 -11
-10 0 -5 9 -10 20 -10 17 0 19 -5 14 -25 -4 -17 -2 -25 7 -25 8 0 1 -12 -16
-27 -16 -14 -30 -27 -29 -27 0 -1 6 -11 12 -23 9 -16 9 -24 1 -29 -7 -4 4 -14
27 -25 21 -9 43 -15 48 -11 5 3 1 9 -10 13 -16 6 -14 8 13 14 40 9 58 29 47
52 -11 26 -11 37 -1 44 5 4 4 10 -2 13 -6 4 -11 2 -11 -3 0 -14 -47 -14 -55
-1 -3 6 -1 10 5 10 15 0 0 52 -19 67 -15 11 -15 13 0 25 20 16 31 46 20 52
-10 7 -1 168 10 181 5 5 9 -1 10 -15 0 -14 3 -19 6 -12 2 6 9 10 14 6 5 -3 9
-2 8 3 -1 4 1 16 5 26 5 9 5 25 1 35 -7 16 -8 15 -15 -3 -8 -18 -9 -17 -9 8
-1 41 29 34 76 -18z m-287 -9 c0 -3 -4 -8 -10 -11 -5 -3 -10 -1 -10 4 0 6 5
11 10 11 6 0 10 -2 10 -4z m7 -78 c-3 -8 -6 -5 -6 6 -1 11 2 17 5 13 3 -3 4
-12 1 -19z m61 -43 c0 -19 -4 -35 -9 -35 -5 0 -9 16 -9 35 0 19 4 35 9 35 5 0
9 -16 9 -35z m642 -61 c0 -8 -4 -12 -10 -9 -5 3 -10 10 -10 16 0 5 5 9 10 9 6
0 10 -7 10 -16z m-713 -99 c-1 -46 -5 -81 -8 -77 -11 11 -15 92 -6 92 5 0 6
19 2 41 -5 29 -4 39 4 35 6 -4 10 -39 8 -91z m648 -143 c-3 -3 -12 11 -20 32
-11 26 -13 42 -5 56 5 10 11 29 11 42 1 13 5 -10 10 -51 5 -41 7 -77 4 -79z
m160 119 c-3 -12 -10 -21 -15 -21 -5 0 -4 11 2 25 13 29 23 26 13 -4z m-638
-23 c-3 -7 -5 -2 -5 12 0 14 2 19 5 13 2 -7 2 -19 0 -25z m-197 -11 c0 -4 -9
-2 -20 5 -13 9 -16 14 -7 20 11 6 27 -8 27 -25z m791 -40 c-12 -12 -21 -16
-21 -9 0 7 4 12 9 12 5 0 13 10 17 23 5 14 9 17 12 8 2 -7 -5 -23 -17 -34z
m-51 -94 c-13 -24 -18 -29 -14 -13 4 14 7 32 8 40 1 8 6 18 11 22 19 14 16
-10 -5 -49z m-745 37 c3 -5 1 -10 -4 -10 -6 0 -11 5 -11 10 0 6 2 10 4 10 3 0
8 -4 11 -10z m712 -55 c-4 -57 -3 -63 9 -48 23 31 15 9 -21 -61 -19 -37 -35
-73 -35 -81 0 -7 -6 -18 -14 -25 -8 -6 -12 -18 -10 -25 3 -7 -4 -18 -15 -24
-12 -7 -18 -17 -15 -26 4 -8 1 -15 -6 -15 -6 0 -14 9 -17 20 -6 24 -26 21 -31
-5 -3 -10 0 -15 7 -11 6 4 11 4 11 -1 -1 -10 -117 -89 -151 -102 -18 -6 -28
-19 -33 -42 -3 -18 -8 -30 -11 -27 -3 3 -2 19 1 35 4 21 16 37 38 48 17 9 42
31 55 49 21 28 22 29 16 6 l-7 -25 31 29 c17 17 31 38 31 47 0 10 17 27 40 40
40 23 47 39 41 100 -1 8 3 26 8 40 8 20 10 15 11 -31 l2 -55 12 50 c7 28 17
59 23 70 6 11 14 46 18 78 10 78 19 72 12 -8z m-134 -220 c-3 -9 -8 -14 -10
-11 -3 3 -2 9 2 15 9 16 15 13 8 -4z m-66 -57 c-3 -8 -6 -5 -6 6 -1 11 2 17 5
13 3 -3 4 -12 1 -19z m-277 -48 c0 -5 -5 -10 -11 -10 -5 0 -7 5 -4 10 3 6 8
10 11 10 2 0 4 -4 4 -10z m57 -24 c-4 -10 0 -12 16 -8 20 5 21 4 8 -12 -9 -10
-23 -15 -34 -12 -11 3 -26 -2 -34 -10 -16 -16 -33 -19 -33 -5 0 10 23 30 54
47 28 16 29 16 23 0z m-82 -26 c-15 -17 -16 -22 -4 -37 12 -15 12 -16 -2 -11
-12 5 -21 -4 -34 -30 -11 -23 -20 -32 -23 -23 -2 7 -1 16 4 20 5 3 10 13 12
21 5 23 53 93 59 86 4 -3 -2 -15 -12 -26z m-95 -10 c0 -5 -4 -10 -10 -10 -5 0
-10 5 -10 10 0 6 5 10 10 10 6 0 10 -4 10 -10z m-190 -20 c0 -5 -5 -10 -11
-10 -5 0 -7 5 -4 10 3 6 8 10 11 10 2 0 4 -4 4 -10z m442 -61 c7 -33 -5 -94
-23 -113 -8 -9 15 -53 38 -72 10 -9 9 -15 -7 -34 -21 -24 -20 -24 -24 23 -1 6
-11 18 -23 24 -21 13 -21 13 -2 49 10 20 16 41 13 45 -3 5 0 9 5 9 17 0 13 19
-9 47 -11 14 -20 33 -19 42 0 11 3 9 9 -6 10 -24 30 -31 30 -11 0 6 -10 23
-22 37 l-23 25 25 -16 c14 -9 28 -29 32 -49z m-142 26 c-14 -17 -40 -20 -40
-6 0 5 10 12 23 14 12 2 24 5 26 6 2 0 -2 -6 -9 -14z m-280 -66 c0 -14 -9 -34
-20 -44 -27 -24 -25 -33 7 -37 22 -2 29 -10 34 -35 6 -31 5 -33 -25 -34 -17
-1 -38 -1 -46 -1 -8 1 -29 -21 -46 -48 -33 -52 -31 -60 20 -60 12 0 31 -9 42
-20 45 -45 45 -45 -45 -47 -88 -2 -98 -6 -104 -38 -2 -11 -9 -33 -15 -48 -21
-51 -19 -52 82 -52 52 0 97 -3 101 -7 4 -4 4 -21 0 -39 l-7 -32 -103 6 c-85 4
-105 2 -109 -10 -7 -18 -38 -3 -42 21 -2 13 3 15 18 10 14 -4 18 -2 14 5 -4 6
-3 11 2 11 9 0 7 46 -2 93 -2 9 0 17 5 17 5 0 9 -5 9 -11 0 -8 5 -7 16 2 9 7
14 25 12 45 -1 17 4 39 11 48 12 14 11 16 -7 16 -15 0 -20 5 -15 16 3 8 12 13
20 9 11 -3 13 -1 9 10 -3 8 -1 14 4 12 5 -1 16 7 25 18 9 11 14 14 10 8 -14
-29 12 -9 41 30 34 45 51 109 27 100 -7 -3 -13 0 -13 6 0 6 4 11 9 11 5 0 13
12 19 28 5 15 19 36 29 47 11 11 18 27 16 35 -4 13 -3 13 6 0 6 -8 11 -27 11
-41z m249 -10 c-12 -18 -24 -28 -27 -21 -3 11 38 65 46 58 2 -3 -6 -19 -19
-37z m81 7 c0 -27 -10 -44 -46 -83 l-46 -48 37 47 c26 33 37 58 38 83 1 45 17
46 17 1z m-142 -6 c-7 -11 -16 -20 -21 -20 -4 0 -3 9 3 20 6 11 15 20 20 20 6
0 5 -9 -2 -20z m177 0 c-3 -5 -11 -10 -16 -10 -6 0 -7 5 -4 10 3 6 11 10 16
10 6 0 7 -4 4 -10z m-77 -8 c13 11 14 10 5 -7 -10 -18 -80 -85 -89 -85 -2 0
-3 12 -2 26 2 21 7 25 25 21 23 -4 37 14 35 43 -1 11 0 11 4 2 5 -10 9 -10 22
0z m401 -16 c19 -23 -3 -56 -38 -56 -23 0 -31 6 -39 29 -12 33 -6 39 39 40 15
1 32 -5 38 -13z m-1074 -19 c13 -7 21 -22 20 -37 0 -22 -5 -25 -44 -28 -24 -2
-48 1 -53 6 -15 15 1 52 25 62 28 11 29 11 52 -3z m1301 1 c-3 -7 -9 -21 -12
-30 -8 -23 -43 -23 -59 -1 -20 27 -7 43 37 43 28 0 38 -4 34 -12z m222 -32 c3
-26 2 -27 -35 -24 -33 3 -38 7 -41 30 -2 19 2 27 15 30 32 7 58 -8 61 -36z
m-1327 24 c27 0 30 -26 6 -53 -23 -27 -73 -36 -114 -22 -24 8 -30 29 -13 40 6
4 8 10 5 15 -7 12 54 30 80 24 11 -2 27 -4 36 -4z m549 0 c0 -5 -5 -10 -11
-10 -5 0 -7 5 -4 10 3 6 8 10 11 10 2 0 4 -4 4 -10z m-25 -70 c-4 -11 -13 -19
-22 -18 -9 2 -18 -4 -20 -12 -4 -13 -3 -13 6 0 9 13 11 12 11 -3 0 -12 -6 -17
-17 -15 -10 2 -23 -3 -30 -12 -7 -8 -13 -10 -13 -5 0 14 79 99 86 92 3 -3 3
-15 -1 -27z m9 -45 c-9 -14 -19 -23 -22 -20 -5 4 26 45 35 45 2 0 -4 -11 -13
-25z m-1006 -12 c4 -28 -29 -43 -94 -43 -58 0 -84 14 -84 46 0 25 0 25 88 22
82 -3 87 -4 90 -25z m1049 -8 c-19 -18 -67 -48 -67 -41 0 14 65 70 72 62 3 -5
1 -14 -5 -21z m864 -25 c10 -6 19 -19 19 -29 0 -21 -35 -31 -110 -31 -100 0
-131 18 -94 54 18 19 153 23 185 6z m-836 -45 c11 -1 31 7 44 17 26 20 112 25
154 9 34 -13 41 -38 16 -52 -25 -13 -150 -16 -170 -4 -29 19 -39 14 -39 -19 0
-18 5 -37 11 -43 7 -7 8 -31 4 -68 -5 -35 -11 -52 -16 -44 -4 7 -5 33 -2 58 3
29 -1 59 -10 80 -17 39 -32 26 -17 -15 6 -15 9 -29 6 -31 -9 -9 -30 43 -28 68
1 16 -4 29 -13 33 -8 3 -15 12 -15 20 0 10 6 13 15 10 9 -4 18 1 22 12 6 17 8
16 13 -6 4 -16 13 -25 25 -25z m-111 17 c-6 -4 -13 -15 -17 -24 -5 -14 -1 -18
16 -18 21 -1 22 -1 3 -15 -11 -8 -27 -15 -35 -15 -9 0 -12 3 -6 8 6 4 10 14
10 22 0 8 -4 18 -10 23 -6 4 -4 11 5 17 17 11 51 14 34 2z m-583 -65 c-7 -7
-12 -5 -17 7 -4 11 -1 21 7 27 17 11 26 -18 10 -34z m32 -27 c-3 -11 -12 -20
-21 -20 -13 0 -12 3 3 20 10 11 19 20 21 20 1 0 0 -9 -3 -20z m550 -21 c4 -16
3 -18 -9 -8 -7 6 -11 15 -8 20 8 13 11 11 17 -12z m37 -39 c0 -5 -7 -7 -15 -4
-8 4 -15 8 -15 10 0 2 7 4 15 4 8 0 15 -4 15 -10z m67 -12 c-3 -8 -6 -5 -6 6
-1 11 2 17 5 13 3 -3 4 -12 1 -19z m-681 -1 c8 3 14 0 14 -6 0 -6 -7 -11 -15
-11 -9 0 -15 -10 -16 -22 -1 -19 -2 -18 -9 6 -9 28 -1 64 7 39 3 -7 11 -9 19
-6z m664 -3 c0 -3 -5 -14 -10 -25 -10 -17 -13 -18 -25 -5 -19 19 -19 27 0 20
8 -4 15 -1 15 5 0 6 5 11 10 11 6 0 10 -3 10 -6z m-250 -14 c0 -5 -5 -10 -11
-10 -5 0 -7 5 -4 10 3 6 8 10 11 10 2 0 4 -4 4 -10z m190 -51 c0 -5 -4 -9 -10
-9 -5 0 -10 7 -10 16 0 8 5 12 10 9 6 -3 10 -10 10 -16z m74 -89 l7 -35 -14
30 c-8 17 -17 48 -20 70 l-7 40 14 -35 c7 -20 16 -51 20 -70z m-674 80 c0 -5
-2 -10 -4 -10 -3 0 -8 5 -11 10 -3 6 -1 10 4 10 6 0 11 -4 11 -10z m503 -32
c6 -21 2 -36 -7 -27 -10 11 -16 49 -8 49 5 0 12 -10 15 -22z m-73 -68 c0 -5
-5 -10 -11 -10 -5 0 -7 5 -4 10 3 6 8 10 11 10 2 0 4 -4 4 -10z m10 -58 c0
-13 -12 -22 -22 -16 -10 6 -1 24 13 24 5 0 9 -4 9 -8z m30 -42 c0 -5 -8 -10
-17 -10 -15 0 -16 2 -3 10 19 12 20 12 20 0z m-50 -33 c0 -14 -26 0 -27 15 -2
16 0 16 13 4 8 -8 14 -16 14 -19z m-27 -52 c-3 -9 -8 -14 -10 -11 -3 3 -2 9 2
15 9 16 15 13 8 -4z m-199 -199 c-3 -15 -13 -30 -20 -33 -19 -7 -206 15 -217
26 -19 19 29 34 126 40 56 4 106 4 110 0 4 -3 5 -18 1 -33z m329 15 c18 -17
-6 -39 -50 -46 -53 -8 -68 3 -59 40 6 25 9 26 54 19 26 -3 51 -10 55 -13z"/>
<path d="M1273 2035 c-3 -9 -3 -18 -1 -21 3 -3 8 4 11 16 6 23 -1 27 -10 5z"/>
<path d="M1298 2034 c-5 -4 -7 -35 -7 -68 l1 -61 9 55 c10 59 9 87 -3 74z"/>
<path d="M1264 1989 c-3 -6 -1 -16 5 -22 8 -8 11 -5 11 11 0 24 -5 28 -16 11z"/>
<path d="M1240 1915 c0 -8 4 -15 10 -15 5 0 7 7 4 15 -4 8 -8 15 -10 15 -2 0
-4 -7 -4 -15z"/>
<path d="M1197 1883 c-4 -3 -7 -13 -7 -22 1 -13 3 -13 11 2 11 19 8 33 -4 20z"/>
<path d="M1094 1832 c-12 -7 -7 -72 5 -72 3 0 7 18 8 40 2 22 2 40 0 40 -1 0
-7 -4 -13 -8z"/>
<path d="M1115 1730 c-4 -6 -11 -8 -16 -5 -5 4 -9 1 -9 -5 0 -6 6 -13 14 -16
8 -3 14 -11 12 -17 -1 -7 -1 -9 1 -4 3 4 8 5 12 3 4 -3 8 9 9 25 2 28 -11 39
-23 19z"/>
<path d="M1210 1720 c0 -5 5 -10 11 -10 5 0 7 5 4 10 -3 6 -8 10 -11 10 -2 0
-4 -4 -4 -10z"/>
<path d="M1091 1664 c0 -11 3 -14 6 -6 3 7 2 16 -1 19 -3 4 -6 -2 -5 -13z"/>
<path d="M1095 1630 c3 -5 8 -10 11 -10 2 0 4 5 4 10 0 6 -5 10 -11 10 -5 0
-7 -4 -4 -10z"/>
<path d="M1111 1544 c0 -11 3 -14 6 -6 3 7 2 16 -1 19 -3 4 -6 -2 -5 -13z"/>
<path d="M1091 1484 c0 -11 3 -14 6 -6 3 7 2 16 -1 19 -3 4 -6 -2 -5 -13z"/>
<path d="M1145 1440 c-3 -5 1 -10 9 -10 9 0 16 5 16 10 0 6 -4 10 -9 10 -6 0
-13 -4 -16 -10z"/>
<path d="M875 1014 c-9 -14 -15 -27 -13 -30 2 -2 12 10 22 26 21 37 15 40 -9
4z"/>
</g>
</svg>
